<svg xmlns="http://www.w3.org/2000/svg" xmlns:xlink="http://www.w3.org/1999/xlink" width="500" zoomAndPan="magnify" viewBox="0 0 375 374.999991" height="500" preserveAspectRatio="xMidYMid meet" version="1.0"><defs><g/></defs><path fill="#f90716" d="M 265.683594 64.847656 C 249.652344 98.167969 187.089844 90.207031 161.070312 115.042969 C 142.507812 132.761719 147.855469 164.691406 180.894531 195.191406 C 161.914062 174.945312 152.632812 138.664062 188.066406 123.480469 C 188.066406 123.480469 171.195312 138.664062 190.175781 165.242188 C 186.800781 155.539062 194.875 146.746094 219.703125 136.554688 C 269.054688 116.308594 265.683594 64.847656 265.683594 64.847656 Z M 265.683594 64.847656 " fill-opacity="1" fill-rule="nonzero"/><path fill="#808080" d="M 119.730469 113.355469 C 103.410156 144.601562 131.121094 193.082031 180.894531 199.410156 C 180.894531 199.410156 162.363281 188.921875 151.367188 166.929688 C 134.496094 133.183594 150.101562 105.339844 177.519531 94.375 C 216.8125 78.65625 252.183594 74.125 268.214844 50.082031 C 268.214844 50.082031 275.808594 79.1875 260.621094 101.964844 C 260.621094 101.964844 292.679688 64.847656 264.417969 10.429688 C 264.417969 10.429688 277.710938 49.976562 224.34375 62.738281 C 173.859375 74.808594 134.492188 85.09375 119.730469 113.355469 Z M 119.730469 113.355469 " fill-opacity="1" fill-rule="nonzero"/><path fill="#808080" d="M 182.582031 187.597656 C 182.582031 180.375 188.4375 174.523438 195.660156 174.523438 C 202.878906 174.523438 208.734375 180.375 208.734375 187.597656 C 208.734375 194.820312 202.878906 200.675781 195.660156 200.675781 C 188.4375 200.675781 182.582031 194.820312 182.582031 187.597656 Z M 182.582031 187.597656 " fill-opacity="1" fill-rule="nonzero"/><path fill="#f90716" d="M 109.335938 197.183594 C 66.363281 151.769531 69.367188 78.355469 116.046875 33.207031 C 136.429688 13.496094 161.765625 2.433594 187.421875 0 C 167.078125 3.828125 147.386719 13.605469 131.113281 29.347656 C 87.925781 71.117188 85.144531 139.039062 124.902344 181.050781 C 164.664062 223.070312 231.902344 223.269531 275.089844 181.496094 C 294.664062 162.5625 305.933594 138.257812 308.710938 113.425781 C 308.070312 143.882812 295.621094 174.492188 271.667969 197.664062 C 224.988281 242.8125 152.304688 242.597656 109.335938 197.183594 Z M 109.335938 197.183594 " fill-opacity="1" fill-rule="nonzero"/><g fill="#f90716" fill-opacity="1"><g transform="translate(33.007816, 312.168788)"><g><path d="M 19.671875 0 L 11.046875 -28.109375 L 10.84375 -28.109375 C 10.875 -27.429688 10.921875 -26.425781 10.984375 -25.09375 C 11.054688 -23.757812 11.125 -22.320312 11.1875 -20.78125 C 11.257812 -19.238281 11.296875 -17.863281 11.296875 -16.65625 L 11.296875 0 L 4.515625 0 L 4.515625 -35.828125 L 14.859375 -35.828125 L 23.34375 -8.4375 L 23.484375 -8.4375 L 32.46875 -35.828125 L 42.8125 -35.828125 L 42.8125 0 L 35.734375 0 L 35.734375 -16.96875 C 35.734375 -18.101562 35.757812 -19.40625 35.8125 -20.875 C 35.863281 -22.351562 35.910156 -23.75 35.953125 -25.0625 C 36.003906 -26.382812 36.046875 -27.382812 36.078125 -28.0625 L 35.890625 -28.0625 L 26.65625 0 Z M 19.671875 0 "/></g></g></g><g fill="#f90716" fill-opacity="1"><g transform="translate(85.798595, 312.168788)"><g><path d="M 4.515625 -35.828125 L 11.34375 -35.828125 L 11.34375 -18.515625 C 11.34375 -17.679688 11.320312 -16.742188 11.28125 -15.703125 C 11.25 -14.671875 11.21875 -13.660156 11.1875 -12.671875 C 11.15625 -11.679688 11.125 -10.828125 11.09375 -10.109375 C 11.0625 -9.390625 11.023438 -8.894531 10.984375 -8.625 L 11.140625 -8.625 L 27.703125 -35.828125 L 36.78125 -35.828125 L 36.78125 0 L 30.015625 0 L 30.015625 -17.21875 C 30.015625 -18.113281 30.03125 -19.101562 30.0625 -20.1875 C 30.09375 -21.28125 30.132812 -22.328125 30.1875 -23.328125 C 30.238281 -24.335938 30.285156 -25.21875 30.328125 -25.96875 C 30.378906 -26.71875 30.425781 -27.210938 30.46875 -27.453125 L 30.265625 -27.453125 L 13.65625 0 L 4.515625 0 Z M 4.515625 -35.828125 "/></g></g></g><g fill="#f90716" fill-opacity="1"><g transform="translate(132.567815, 312.168788)"><g><path d="M 15.953125 -35.828125 C 20.578125 -35.828125 23.953125 -34.832031 26.078125 -32.84375 C 28.203125 -30.851562 29.265625 -28.117188 29.265625 -24.640625 C 29.265625 -22.535156 28.828125 -20.578125 27.953125 -18.765625 C 27.085938 -16.960938 25.640625 -15.507812 23.609375 -14.40625 C 21.585938 -13.300781 18.835938 -12.75 15.359375 -12.75 L 12.09375 -12.75 L 12.09375 0 L 4.515625 0 L 4.515625 -35.828125 Z M 15.5625 -29.609375 L 12.09375 -29.609375 L 12.09375 -18.96875 L 14.609375 -18.96875 C 16.742188 -18.96875 18.4375 -19.394531 19.6875 -20.25 C 20.945312 -21.101562 21.578125 -22.484375 21.578125 -24.390625 C 21.578125 -27.867188 19.570312 -29.609375 15.5625 -29.609375 Z M 15.5625 -29.609375 "/></g></g></g><g fill="#f90716" fill-opacity="1"><g transform="translate(169.552004, 312.168788)"><g><path d="M 37.03125 -17.96875 C 37.03125 -14.25 36.421875 -11.007812 35.203125 -8.25 C 33.984375 -5.488281 32.109375 -3.335938 29.578125 -1.796875 C 27.054688 -0.265625 23.851562 0.5 19.96875 0.5 C 16.09375 0.5 12.890625 -0.265625 10.359375 -1.796875 C 7.835938 -3.335938 5.960938 -5.5 4.734375 -8.28125 C 3.515625 -11.0625 2.90625 -14.304688 2.90625 -18.015625 C 2.90625 -21.734375 3.515625 -24.960938 4.734375 -27.703125 C 5.960938 -30.441406 7.835938 -32.570312 10.359375 -34.09375 C 12.890625 -35.625 16.113281 -36.390625 20.03125 -36.390625 C 23.90625 -36.390625 27.097656 -35.625 29.609375 -34.09375 C 32.117188 -32.570312 33.984375 -30.429688 35.203125 -27.671875 C 36.421875 -24.910156 37.03125 -21.675781 37.03125 -17.96875 Z M 10.890625 -17.96875 C 10.890625 -14.21875 11.609375 -11.265625 13.046875 -9.109375 C 14.484375 -6.953125 16.789062 -5.875 19.96875 -5.875 C 23.21875 -5.875 25.546875 -6.953125 26.953125 -9.109375 C 28.359375 -11.265625 29.0625 -14.21875 29.0625 -17.96875 C 29.0625 -21.71875 28.359375 -24.671875 26.953125 -26.828125 C 25.546875 -28.984375 23.238281 -30.0625 20.03125 -30.0625 C 16.8125 -30.0625 14.484375 -28.984375 13.046875 -26.828125 C 11.609375 -24.671875 10.890625 -21.71875 10.890625 -17.96875 Z M 10.890625 -17.96875 "/></g></g></g><g fill="#f90716" fill-opacity="1"><g transform="translate(214.966369, 312.168788)"><g><path d="M 32.875 0 L 25.296875 0 L 25.296875 -29.515625 L 16.515625 -29.515625 C 16.304688 -27.972656 16.09375 -26.296875 15.875 -24.484375 C 15.664062 -22.679688 15.4375 -20.847656 15.1875 -18.984375 C 14.9375 -17.128906 14.675781 -15.375 14.40625 -13.71875 C 14.132812 -12.0625 13.863281 -10.597656 13.59375 -9.328125 C 13.164062 -7.253906 12.59375 -5.484375 11.875 -4.015625 C 11.15625 -2.546875 10.164062 -1.425781 8.90625 -0.65625 C 7.65625 0.113281 6.023438 0.5 4.015625 0.5 C 2.710938 0.5 1.507812 0.316406 0.40625 -0.046875 L 0.40625 -6.28125 C 0.832031 -6.101562 1.253906 -5.972656 1.671875 -5.890625 C 2.097656 -5.804688 2.5625 -5.765625 3.0625 -5.765625 C 4.03125 -5.765625 4.773438 -6.273438 5.296875 -7.296875 C 5.816406 -8.316406 6.34375 -10.234375 6.875 -13.046875 C 7.070312 -14.117188 7.351562 -15.789062 7.71875 -18.0625 C 8.09375 -20.34375 8.503906 -23.015625 8.953125 -26.078125 C 9.410156 -29.140625 9.835938 -32.390625 10.234375 -35.828125 L 32.875 -35.828125 Z M 32.875 0 "/></g></g></g><g fill="#f90716" fill-opacity="1"><g transform="translate(257.821583, 312.168788)"><g><path d="M 32.875 0 L 25.296875 0 L 25.296875 -29.515625 L 16.515625 -29.515625 C 16.304688 -27.972656 16.09375 -26.296875 15.875 -24.484375 C 15.664062 -22.679688 15.4375 -20.847656 15.1875 -18.984375 C 14.9375 -17.128906 14.675781 -15.375 14.40625 -13.71875 C 14.132812 -12.0625 13.863281 -10.597656 13.59375 -9.328125 C 13.164062 -7.253906 12.59375 -5.484375 11.875 -4.015625 C 11.15625 -2.546875 10.164062 -1.425781 8.90625 -0.65625 C 7.65625 0.113281 6.023438 0.5 4.015625 0.5 C 2.710938 0.5 1.507812 0.316406 0.40625 -0.046875 L 0.40625 -6.28125 C 0.832031 -6.101562 1.253906 -5.972656 1.671875 -5.890625 C 2.097656 -5.804688 2.5625 -5.765625 3.0625 -5.765625 C 4.03125 -5.765625 4.773438 -6.273438 5.296875 -7.296875 C 5.816406 -8.316406 6.34375 -10.234375 6.875 -13.046875 C 7.070312 -14.117188 7.351562 -15.789062 7.71875 -18.0625 C 8.09375 -20.34375 8.503906 -23.015625 8.953125 -26.078125 C 9.410156 -29.140625 9.835938 -32.390625 10.234375 -35.828125 L 32.875 -35.828125 Z M 32.875 0 "/></g></g></g><g fill="#f90716" fill-opacity="1"><g transform="translate(300.676774, 312.168788)"><g><path d="M 4.515625 -35.828125 L 11.34375 -35.828125 L 11.34375 -18.515625 C 11.34375 -17.679688 11.320312 -16.742188 11.28125 -15.703125 C 11.25 -14.671875 11.21875 -13.660156 11.1875 -12.671875 C 11.15625 -11.679688 11.125 -10.828125 11.09375 -10.109375 C 11.0625 -9.390625 11.023438 -8.894531 10.984375 -8.625 L 11.140625 -8.625 L 27.703125 -35.828125 L 36.78125 -35.828125 L 36.78125 0 L 30.015625 0 L 30.015625 -17.21875 C 30.015625 -18.113281 30.03125 -19.101562 30.0625 -20.1875 C 30.09375 -21.28125 30.132812 -22.328125 30.1875 -23.328125 C 30.238281 -24.335938 30.285156 -25.21875 30.328125 -25.96875 C 30.378906 -26.71875 30.425781 -27.210938 30.46875 -27.453125 L 30.265625 -27.453125 L 13.65625 0 L 4.515625 0 Z M 4.515625 -35.828125 "/></g></g></g><g fill="#f90716" fill-opacity="1"><g transform="translate(130.002933, 368.59997)"><g><path d="M 9.734375 0 L 7.015625 0 L 7.015625 -19.125 L 0.296875 -19.125 L 0.296875 -21.515625 L 16.421875 -21.515625 L 16.421875 -19.125 L 9.734375 -19.125 Z M 9.734375 0 "/></g></g></g><g fill="#f90716" fill-opacity="1"><g transform="translate(151.567312, 368.59997)"><g><path d="M 8.609375 -21.515625 C 11.421875 -21.515625 13.46875 -20.960938 14.75 -19.859375 C 16.039062 -18.753906 16.6875 -17.195312 16.6875 -15.1875 C 16.6875 -14 16.421875 -12.882812 15.890625 -11.84375 C 15.359375 -10.8125 14.460938 -9.972656 13.203125 -9.328125 C 11.953125 -8.691406 10.253906 -8.375 8.109375 -8.375 L 5.640625 -8.375 L 5.640625 0 L 2.921875 0 L 2.921875 -21.515625 Z M 8.375 -19.1875 L 5.640625 -19.1875 L 5.640625 -10.6875 L 7.796875 -10.6875 C 9.847656 -10.6875 11.375 -11.019531 12.375 -11.6875 C 13.382812 -12.351562 13.890625 -13.476562 13.890625 -15.0625 C 13.890625 -16.445312 13.441406 -17.476562 12.546875 -18.15625 C 11.648438 -18.84375 10.257812 -19.1875 8.375 -19.1875 Z M 8.375 -19.1875 "/></g></g></g><g fill="#f90716" fill-opacity="1"><g transform="translate(174.607485, 368.59997)"><g><path d="M 14.9375 0 L 2.921875 0 L 2.921875 -21.515625 L 14.9375 -21.515625 L 14.9375 -19.125 L 5.640625 -19.125 L 5.640625 -12.40625 L 14.40625 -12.40625 L 14.40625 -10.0625 L 5.640625 -10.0625 L 5.640625 -2.375 L 14.9375 -2.375 Z M 14.9375 0 "/></g></g></g><g fill="#f90716" fill-opacity="1"><g transform="translate(196.171862, 368.59997)"><g><path d="M 2.953125 -21.515625 L 5.484375 -21.515625 L 5.484375 -9.703125 C 5.484375 -9.015625 5.472656 -8.265625 5.453125 -7.453125 C 5.429688 -6.640625 5.398438 -5.882812 5.359375 -5.1875 C 5.316406 -4.5 5.285156 -4.003906 5.265625 -3.703125 L 5.390625 -3.703125 L 17.234375 -21.515625 L 20.25 -21.515625 L 20.25 0 L 17.71875 0 L 17.71875 -11.6875 C 17.71875 -12.40625 17.726562 -13.191406 17.75 -14.046875 C 17.78125 -14.898438 17.816406 -15.675781 17.859375 -16.375 C 17.898438 -17.082031 17.929688 -17.585938 17.953125 -17.890625 L 17.828125 -17.890625 L 5.96875 0 L 2.953125 0 Z M 17.59375 -28.1875 C 17.445312 -26.6875 16.9375 -25.546875 16.0625 -24.765625 C 15.195312 -23.992188 13.804688 -23.609375 11.890625 -23.609375 C 9.929688 -23.609375 8.539062 -23.988281 7.71875 -24.75 C 6.90625 -25.519531 6.453125 -26.664062 6.359375 -28.1875 L 8.828125 -28.1875 C 8.921875 -27.101562 9.195312 -26.375 9.65625 -26 C 10.125 -25.632812 10.890625 -25.453125 11.953125 -25.453125 C 12.878906 -25.453125 13.609375 -25.644531 14.140625 -26.03125 C 14.671875 -26.425781 14.988281 -27.144531 15.09375 -28.1875 Z M 17.59375 -28.1875 "/></g></g></g><g fill="#f90716" fill-opacity="1"><g transform="translate(224.121237, 368.59997)"><g><path d="M 17.40625 -21.515625 L 17.40625 -2.40625 L 20.15625 -2.40625 L 20.15625 5.65625 L 17.5625 5.65625 L 17.5625 0 L 2.765625 0 L 2.765625 5.65625 L 0.1875 5.65625 L 0.1875 -2.40625 L 1.84375 -2.40625 C 2.5625 -3.65625 3.242188 -5.050781 3.890625 -6.59375 C 4.546875 -8.144531 5.125 -9.769531 5.625 -11.46875 C 6.132812 -13.164062 6.546875 -14.863281 6.859375 -16.5625 C 7.179688 -18.269531 7.382812 -19.921875 7.46875 -21.515625 Z M 14.734375 -19.0625 L 9.84375 -19.0625 C 9.769531 -17.90625 9.578125 -16.59375 9.265625 -15.125 C 8.953125 -13.65625 8.554688 -12.148438 8.078125 -10.609375 C 7.609375 -9.078125 7.085938 -7.597656 6.515625 -6.171875 C 5.941406 -4.742188 5.335938 -3.488281 4.703125 -2.40625 L 14.734375 -2.40625 Z M 14.734375 -19.0625 "/></g></g></g></svg>